<?xml version="1.0" encoding="utf-8"?>
<!-- Generator: Adobe Illustrator 19.1.0, SVG Export Plug-In . SVG Version: 6.00 Build 0)  -->
<svg version="1.1" id="Calque_1" xmlns="http://www.w3.org/2000/svg" xmlns:xlink="http://www.w3.org/1999/xlink" x="0px" y="0px"
	 width="100px" height="50.8px" viewBox="0 0 100 50.8" enable-background="new 0 0 100 50.8" xml:space="preserve">
<g>
	<g>
		<path fill="#BEE3DB" d="M61.9,24.3c0,2.4-0.4,4.6-1.1,6.6c-0.8,2-1.8,3.7-3.2,5.2c-1.4,1.5-3.1,2.6-5,3.4c-2,0.8-4.1,1.2-6.5,1.2
			c-2.4,0-4.5-0.4-6.5-1.2c-1.9-0.8-3.6-1.9-5-3.4c-1.4-1.5-2.5-3.2-3.2-5.2c-0.8-2-1.1-4.2-1.1-6.6s0.4-4.6,1.1-6.6
			c0.8-2,1.8-3.8,3.2-5.2c1.4-1.5,3.1-2.6,5-3.4c1.9-0.8,4.1-1.2,6.5-1.2c2.4,0,4.5,0.4,6.5,1.2c2,0.8,3.6,1.9,5,3.4
			c1.4,1.5,2.5,3.2,3.2,5.2C61.6,19.7,61.9,21.9,61.9,24.3z M57.5,24.3c0-2-0.3-3.8-0.8-5.3c-0.5-1.6-1.3-2.9-2.3-4
			s-2.2-1.9-3.6-2.5c-1.4-0.6-3-0.9-4.7-0.9c-1.7,0-3.3,0.3-4.7,0.9c-1.4,0.6-2.6,1.4-3.6,2.5c-1,1.1-1.8,2.4-2.3,4
			c-0.5,1.6-0.8,3.3-0.8,5.3c0,2,0.3,3.7,0.8,5.3c0.5,1.6,1.3,2.9,2.3,4c1,1.1,2.2,1.9,3.6,2.5c1.4,0.6,3,0.9,4.7,0.9
			c1.7,0,3.3-0.3,4.7-0.9c1.4-0.6,2.6-1.4,3.6-2.5c1-1.1,1.8-2.4,2.3-4C57.2,28.1,57.5,26.3,57.5,24.3z"/>
	</g>
	<path fill="#73619E" d="M3.4,31.1"/>
	<polyline fill="none" stroke="#FBF9EE" stroke-width="0.5" stroke-linejoin="round" stroke-miterlimit="10" points="6,25.1 
		3.4,31.1 7.7,33.9 13,24.2 26.3,10.8 14,15.7 14,34.9 20.8,42.4 48.8,45.8 73.7,35.8 90.3,26.8 82.8,12.6 95.2,22.1 	"/>
	<polygon fill="none" stroke="#FBF9EE" stroke-width="0.5" stroke-miterlimit="10" points="45.5,4 64.7,5.4 72.7,13.5 	"/>
	<line fill="none" stroke="#FBF9EE" stroke-width="0.5" stroke-miterlimit="10" x1="26.3" y1="10.8" x2="45.5" y2="4"/>
	<line fill="none" stroke="#FBF9EE" stroke-width="0.5" stroke-miterlimit="10" x1="72.7" y1="13.5" x2="82.8" y2="12.6"/>
	<polyline fill="none" stroke="#FBF9EE" stroke-width="0.5" stroke-miterlimit="10" points="90.3,26.8 87.9,33.5 67.1,42.4 79.6,39 
		75,28.4 73.7,35.8 	"/>
	<polyline fill="none" stroke="#FBF9EE" stroke-width="0.5" stroke-miterlimit="10" points="37.4,45.8 7.7,33.9 48.8,45.8 
		67.1,42.4 	"/>
	<circle fill="#D2795E" cx="3.4" cy="31.1" r="1.6"/>
	<circle fill="#D2795E" cx="87.9" cy="33.5" r="4"/>
	<circle fill="#BEE3DB" cx="37.4" cy="45.8" r="1"/>
	<circle fill="#D2795E" cx="95.2" cy="22.1" r="3"/>
	<circle fill="#BEE3DB" cx="45.5" cy="4" r="1.9"/>
	<circle fill="#D2795E" cx="14" cy="15.7" r="1"/>
	<circle fill="#D2795E" cx="14" cy="34.9" r="1"/>
	<circle fill="#D2795E" cx="67.1" cy="42.4" r="1"/>
	<circle fill="#D2795E" cx="75" cy="28.4" r="2.2"/>
	<circle fill="#D2795E" cx="72.7" cy="13.5" r="1"/>
	<circle fill="#D2795E" cx="6" cy="25.1" r="0.5"/>
	<circle fill="#D2795E" cx="7.7" cy="33.9" r="1"/>
	<circle fill="#D2795E" cx="20.8" cy="42.4" r="1"/>
	<circle fill="#D2795E" cx="26.3" cy="10.8" r="2.3"/>
	<circle fill="#D2795E" cx="82.8" cy="12.6" r="0.5"/>
	<circle fill="#D2795E" cx="64.7" cy="5.4" r="0.7"/>
	<circle fill="#D2795E" cx="90.3" cy="26.8" r="0.7"/>
	<circle fill="#BEE3DB" cx="48.8" cy="45.8" r="2.4"/>
	<circle fill="#D2795E" cx="73.7" cy="35.8" r="0.8"/>
	<circle fill="#D2795E" cx="79.6" cy="39" r="0.9"/>
	<circle fill="#D2795E" cx="13" cy="24.2" r="1"/>
</g>
</svg>
